<svg width="62" height="62" viewBox="0 0 62 62" fill="none" xmlns="http://www.w3.org/2000/svg">
<path d="M10.9162 11.3772C7.6875 14.6367 7.6875 19.8488 7.6875 30.2884V32.1334C7.6875 42.5577 7.6875 47.7698 10.9162 51.0446C14.1757 54.2734 19.3879 54.2734 29.8275 54.2734H31.6725C42.0967 54.2734 47.3088 54.2734 50.5837 51.0446C53.8125 47.7851 53.8125 42.573 53.8125 32.1334V30.2884C53.8125 19.8642 53.8125 14.6521 50.5837 11.3772C47.3242 8.14844 42.1121 8.14844 31.6725 8.14844H29.8275C19.4032 8.14844 14.1911 8.14844 10.9162 11.3772ZM15.4672 22.1858H20.7562C20.9254 30.9803 24.7999 34.701 27.8749 35.4698V22.1858H32.841V29.7657C35.8698 29.4428 39.0678 25.9834 40.1441 22.1704H45.0948C44.6913 24.1443 43.885 26.0137 42.7263 27.6618C41.5676 29.3099 40.0814 30.7013 38.3606 31.749C40.281 32.7045 41.977 34.0564 43.3366 35.7155C44.6962 37.3745 45.6884 39.3031 46.248 41.3738H40.7898C39.6213 37.7299 36.7001 34.9009 32.841 34.5165V41.3738H32.226C21.7095 41.3738 15.7132 34.1783 15.4672 22.1858Z" fill="white"/>
<rect x="12.8945" y="18.3047" width="34.7177" height="26.7822" fill="white"/>
<rect x="16.8633" y="19.3086" width="28.7661" height="27.7742" fill="#010202"/>
<path d="M30.752 8.40625C18.1519 8.40625 7.9375 18.6206 7.9375 31.2207C7.9375 43.8209 18.1519 54.0352 30.752 54.0352C43.3521 54.0352 53.5665 43.8209 53.5665 31.2207C53.5665 18.6206 43.3521 8.40625 30.752 8.40625ZM41.3269 23.922C40.9836 27.5295 39.498 36.2839 38.7419 40.3245C38.4221 42.0341 37.7923 42.6074 37.1827 42.6634C35.858 42.7854 34.8518 41.7879 33.5686 40.9467C31.5606 39.6305 30.4262 38.8111 28.4771 37.5267C26.2246 36.0423 27.6848 35.2268 28.9685 33.8929C29.3045 33.544 35.142 28.2344 35.2549 27.7527C35.269 27.6924 35.2825 27.4675 35.1488 27.3494C35.015 27.2312 34.8185 27.2713 34.6764 27.3034C34.475 27.3491 31.2673 29.4693 25.0531 33.664C24.1426 34.2892 23.3179 34.5938 22.579 34.5779C21.7644 34.5603 20.1974 34.1174 19.0325 33.7386C17.6038 33.2742 16.4682 33.0287 16.5671 32.24C16.6186 31.829 17.1844 31.4089 18.2644 30.9796C24.9153 28.0819 29.3503 26.1715 31.5693 25.2484C37.9051 22.6131 39.2216 22.1553 40.0797 22.14C40.2685 22.1369 40.6905 22.1836 40.9638 22.4054C41.1456 22.5634 41.2615 22.7839 41.2885 23.0233C41.3348 23.3205 41.3477 23.6219 41.3269 23.922Z" fill="white"/>
</svg>
