<svg width="62" height="62" viewBox="0 0 62 62" fill="none" xmlns="http://www.w3.org/2000/svg">
<path d="M11.4162 11.3811C8.1875 14.6406 8.1875 19.8527 8.1875 30.2923V32.1373C8.1875 42.5616 8.1875 47.7737 11.4162 51.0486C14.6757 54.2773 19.8879 54.2773 30.3275 54.2773H32.1725C42.5967 54.2773 47.8088 54.2773 51.0837 51.0486C54.3125 47.7891 54.3125 42.5769 54.3125 32.1373V30.2923C54.3125 19.8681 54.3125 14.656 51.0837 11.3811C47.8242 8.15234 42.6121 8.15234 32.1725 8.15234H30.3275C19.9032 8.15234 14.6911 8.15234 11.4162 11.3811ZM15.9672 22.1897H21.2562C21.4254 30.9842 25.2999 34.7049 28.3749 35.4737V22.1897H33.341V29.7696C36.3698 29.4467 39.5678 25.9873 40.6441 22.1743H45.5948C45.1913 24.1482 44.385 26.0176 43.2263 27.6657C42.0676 29.3138 40.5814 30.7052 38.8606 31.7529C40.781 32.7084 42.477 34.0603 43.8366 35.7194C45.1962 37.3784 46.1884 39.307 46.748 41.3777H41.2898C40.1213 37.7338 37.2001 34.9048 33.341 34.5204V41.3777H32.726C22.2095 41.3777 16.2132 34.1822 15.9672 22.1897Z" fill="white"/>
</svg>
