<svg width="62" height="62" viewBox="0 0 62 62" fill="none" xmlns="http://www.w3.org/2000/svg">
<path d="M10.9143 11.3772C7.68555 14.6367 7.68555 19.8488 7.68555 30.2884V32.1334C7.68555 42.5577 7.68555 47.7698 10.9143 51.0446C14.1738 54.2734 19.3859 54.2734 29.8255 54.2734H31.6705C42.0948 54.2734 47.3069 54.2734 50.5818 51.0446C53.8105 47.7851 53.8105 42.573 53.8105 32.1334V30.2884C53.8105 19.8642 53.8105 14.6521 50.5818 11.3772C47.3223 8.14844 42.1101 8.14844 31.6705 8.14844H29.8255C19.4013 8.14844 14.1892 8.14844 10.9143 11.3772ZM15.4653 22.1858H20.7543C20.9234 30.9803 24.7979 34.701 27.8729 35.4698V22.1858H32.839V29.7657C35.8679 29.4428 39.0659 25.9834 40.1421 22.1704H45.0929C44.6894 24.1443 43.883 26.0137 42.7243 27.6618C41.5656 29.3099 40.0794 30.7013 38.3586 31.749C40.2791 32.7045 41.975 34.0564 43.3346 35.7155C44.6942 37.3745 45.6865 39.3031 46.246 41.3738H40.7879C39.6194 37.7299 36.6981 34.9009 32.839 34.5165V41.3738H32.224C21.7075 41.3738 15.7113 34.1783 15.4653 22.1858Z" fill="white"/>
<rect x="12.8926" y="18.3047" width="34.7177" height="26.7822" fill="white"/>
<rect x="16.8613" y="19.3086" width="28.7661" height="27.7742" fill="#010202"/>
<path d="M30.75 8.40625C18.1499 8.40625 7.93555 18.6206 7.93555 31.2207C7.93555 43.8209 18.1499 54.0352 30.75 54.0352C43.3502 54.0352 53.5645 43.8209 53.5645 31.2207C53.5645 18.6206 43.3502 8.40625 30.75 8.40625ZM41.3249 23.9219C40.9816 27.5295 39.496 36.2839 38.7399 40.3245C38.4201 42.0341 37.7903 42.6074 37.1808 42.6634C35.8561 42.7854 34.8498 41.7879 33.5666 40.9467C31.5587 39.6305 30.4243 38.8111 28.4751 37.5267C26.2227 36.0423 27.6829 35.2268 28.9666 33.8929C29.3025 33.544 35.14 28.2343 35.253 27.7527C35.267 27.6924 35.2806 27.4675 35.1468 27.3494C35.013 27.2312 34.8165 27.2713 34.6744 27.3034C34.4731 27.3491 31.2653 29.4693 25.0511 33.664C24.1407 34.2892 23.316 34.5938 22.577 34.5779C21.7624 34.5603 20.1955 34.1174 19.0306 33.7386C17.6018 33.2742 16.4662 33.0287 16.5651 32.24C16.6166 31.829 17.1824 31.4089 18.2624 30.9796C24.9133 28.0819 29.3483 26.1715 31.5673 25.2484C37.9031 22.6131 39.2197 22.1553 40.0778 22.14C40.2665 22.1369 40.6885 22.1836 40.9618 22.4054C41.1436 22.5634 41.2595 22.7839 41.2866 23.0233C41.3329 23.3204 41.3458 23.6219 41.3249 23.9219Z" fill="white"/>
<rect x="17" y="19.4727" width="26" height="26" fill="white"/>
<path d="M40.6915 21.8213C38.9181 21.0178 36.9981 20.4347 34.998 20.0977C34.9805 20.0972 34.9631 20.1004 34.9469 20.1071C34.9308 20.1138 34.9164 20.1239 34.9047 20.1366C34.6647 20.5643 34.3847 21.1215 34.198 21.5492C32.0766 21.2382 29.9192 21.2382 27.7978 21.5492C27.6112 21.1086 27.3312 20.5643 27.0778 20.1366C27.0645 20.1107 27.0245 20.0977 26.9845 20.0977C24.9844 20.4347 23.0777 21.0178 21.291 21.8213C21.2777 21.8213 21.2643 21.8343 21.251 21.8473C17.6242 27.1218 16.6242 32.2538 17.1176 37.3339C17.1176 37.3598 17.1309 37.3858 17.1576 37.3987C19.5576 39.1094 21.8643 40.1462 24.1444 40.833C24.1844 40.846 24.2244 40.833 24.2377 40.8071C24.7711 40.0943 25.2511 39.3427 25.6644 38.5521C25.6911 38.5003 25.6644 38.4485 25.6111 38.4355C24.8511 38.1504 24.1311 37.8134 23.4244 37.4246C23.3711 37.3987 23.3711 37.321 23.4111 37.2821C23.5577 37.1784 23.7044 37.0618 23.8511 36.9581C23.8777 36.9322 23.9177 36.9322 23.9444 36.9451C28.5312 38.9798 33.478 38.9798 38.0114 36.9451C38.0381 36.9322 38.0781 36.9322 38.1048 36.9581C38.2515 37.0747 38.3981 37.1784 38.5448 37.2951C38.5981 37.3339 38.5981 37.4117 38.5315 37.4376C37.8381 37.8394 37.1048 38.1633 36.3447 38.4485C36.2914 38.4614 36.2781 38.5262 36.2914 38.5651C36.7181 39.3556 37.1981 40.1073 37.7181 40.82C37.7581 40.833 37.7981 40.846 37.8381 40.833C40.1315 40.1462 42.4382 39.1094 44.8383 37.3987C44.865 37.3858 44.8783 37.3598 44.8783 37.3339C45.465 31.4632 43.9049 26.3701 40.7449 21.8473C40.7315 21.8343 40.7182 21.8213 40.6915 21.8213ZM26.3578 34.2366C24.9844 34.2366 23.8377 33.0054 23.8377 31.4892C23.8377 29.9729 24.9578 28.7417 26.3578 28.7417C27.7712 28.7417 28.8912 29.9859 28.8779 31.4892C28.8779 33.0054 27.7578 34.2366 26.3578 34.2366ZM35.6514 34.2366C34.278 34.2366 33.1313 33.0054 33.1313 31.4892C33.1313 29.9729 34.2513 28.7417 35.6514 28.7417C37.0648 28.7417 38.1848 29.9859 38.1714 31.4892C38.1714 33.0054 37.0648 34.2366 35.6514 34.2366Z" fill="black"/>
</svg>
