<svg width="131" height="68" viewBox="0 0 131 68" fill="none" xmlns="http://www.w3.org/2000/svg">
<path d="M83.4757 57.375V15.8563H103.761C108.98 15.8563 112.895 16.8449 115.504 18.8219C118.154 20.799 119.478 23.4088 119.478 26.6512C119.478 28.826 118.944 30.724 117.877 32.3452C116.809 33.9268 115.346 35.1526 113.488 36.0225C111.629 36.8924 109.494 37.3274 107.082 37.3274L108.209 34.8956C110.819 34.8956 113.132 35.3306 115.148 36.2005C117.165 37.0308 118.727 38.2764 119.834 39.9372C120.981 41.5979 121.554 43.6343 121.554 46.0463C121.554 49.6051 120.151 52.3928 117.343 54.4094C114.536 56.3865 110.403 57.375 104.947 57.375H83.4757ZM93.025 50.1389H104.235C106.726 50.1389 108.604 49.7435 109.87 48.9526C111.175 48.1223 111.827 46.8174 111.827 45.038C111.827 43.2982 111.175 42.0131 109.87 41.1827C108.604 40.3128 106.726 39.8778 104.235 39.8778H92.3132V32.879H102.574C104.907 32.879 106.687 32.4836 107.912 31.6927C109.178 30.8624 109.81 29.6168 109.81 27.956C109.81 26.3348 109.178 25.1288 107.912 24.338C106.687 23.5076 104.907 23.0924 102.574 23.0924H93.025V50.1389Z" fill="#C1C4FD"/>
<path d="M47.038 57.375V15.8563H26.7532C21.5337 15.8563 17.6191 16.8449 15.0093 18.8219C12.36 20.799 11.0354 23.4088 11.0354 26.6512C11.0354 28.826 11.5692 30.724 12.6368 32.3452C13.7044 33.9268 15.1675 35.1526 17.0259 36.0225C18.8844 36.8924 21.0196 37.3274 23.4317 37.3274L22.3047 34.8956C19.695 34.8956 17.3818 35.3306 15.3652 36.2005C13.3486 37.0308 11.7867 38.2764 10.6795 39.9372C9.5328 41.5979 8.95944 43.6343 8.95944 46.0463C8.95944 49.6051 10.3632 52.3928 13.1706 54.4094C15.9781 56.3865 20.1102 57.375 25.5669 57.375H47.038ZM37.4887 50.1389H26.2787C23.7875 50.1389 21.9093 49.7435 20.644 48.9526C19.3391 48.1223 18.6867 46.8174 18.6867 45.038C18.6867 43.2982 19.3391 42.0131 20.644 41.1827C21.9093 40.3128 23.7875 39.8778 26.2787 39.8778H38.2005V32.879H27.9394C25.6065 32.879 23.8271 32.4836 22.6013 31.6927C21.336 30.8624 20.7033 29.6168 20.7033 27.956C20.7033 26.3348 21.336 25.1288 22.6013 24.338C23.8271 23.5076 25.6065 23.0924 27.9394 23.0924H37.4887V50.1389Z" fill="#C1C4FD"/>
<path fill-rule="evenodd" clip-rule="evenodd" d="M92.1299 0.605469H40.1048L44.8053 10.6635H86.4342L92.1299 0.605469ZM73.9211 34.7542V34.7239H58.3136V34.7702C43.0189 34.1405 31.5996 31.6537 31.5996 28.6689C31.5996 25.2061 46.9692 22.4136 65.9288 22.4136C84.8884 22.4136 100.258 25.2061 100.258 28.6689C100.258 31.6291 89.026 34.0995 73.9211 34.7542ZM73.9211 38.8453C90.5676 37.9487 103.063 34.3141 103.063 30.0093C103.063 25.0386 86.4029 20.9615 65.9288 20.9615C45.3986 20.9615 28.7949 25.0386 28.7949 30.0093C28.7949 34.3466 41.479 38.0035 58.3136 38.8651V62.0799H73.9211V38.8453Z" fill="white"/>
<path d="M66.0563 31.7508C68.7659 31.7508 71.3713 31.6987 73.8724 31.5424V10.2305H58.2402V31.5424C60.7414 31.6466 63.3468 31.7508 66.0563 31.7508Z" fill="url(#paint0_linear_550_580)"/>
<path d="M37.4649 22.0938H47.038V27.3717H37.4648L37.4649 22.0938Z" fill="#C1C4FD"/>
<path d="M83.4531 22.0078H93.0223V26.5317H83.4532L83.4531 22.0078Z" fill="#C1C4FD"/>
<defs>
<linearGradient id="paint0_linear_550_580" x1="66.0563" y1="10.2305" x2="66.0563" y2="31.7508" gradientUnits="userSpaceOnUse">
<stop stop-color="white"/>
<stop offset="1" stop-color="white"/>
</linearGradient>
</defs>
</svg>
