<svg width="72" height="72" viewBox="0 0 72 72" fill="none" xmlns="http://www.w3.org/2000/svg">
<g clip-path="url(#clip0_567_504)" filter="url(#filter0_d_567_504)">
<path d="M47.154 34.4C47.2656 34.3998 47.376 34.4218 47.4791 34.4645C47.5821 34.5073 47.6756 34.57 47.7543 34.6491C47.8329 34.7282 47.8952 34.8221 47.9373 34.9254C47.9795 35.0287 48.0008 35.1393 48 35.2508V39.0956C48.0008 39.2066 47.9797 39.3167 47.9379 39.4196C47.8961 39.5225 47.8344 39.6161 47.7564 39.6952C47.6784 39.7742 47.5856 39.837 47.4832 39.8801C47.3809 39.9233 47.2711 39.9458 47.16 39.9464C47.049 39.9458 46.9391 39.9233 46.8368 39.8801C46.7345 39.837 46.6416 39.7742 46.5636 39.6952C46.4856 39.6161 46.4239 39.5225 46.3821 39.4196C46.3403 39.3167 46.3192 39.2066 46.32 39.0956V37.7456C44.1348 41.4128 40.0788 44 35.7084 44C30.4164 44 25.9812 40.7348 24.0576 35.702C23.9769 35.4923 23.9819 35.2593 24.0718 35.0533C24.1616 34.8473 24.329 34.685 24.5376 34.6016C24.9696 34.4324 25.4568 34.6496 25.6248 35.0876C27.3048 39.482 31.1304 42.2996 35.7084 42.2996C39.7536 42.2996 43.5324 39.6812 45.2928 36.1148L43.5276 36.1268C43.4166 36.127 43.3066 36.1052 43.204 36.0628C43.1013 36.0205 43.0081 35.9583 42.9295 35.8798C42.8509 35.8013 42.7886 35.7081 42.746 35.6056C42.7035 35.503 42.6816 35.393 42.6816 35.282C42.6787 35.0578 42.765 34.8417 42.9213 34.681C43.0777 34.5204 43.2915 34.4284 43.5156 34.4252L47.154 34.4ZM36.294 20C41.5836 20 46.02 23.2652 47.9436 28.298C48.0244 28.5077 48.0193 28.7408 47.9295 28.9467C47.8396 29.1527 47.6723 29.315 47.4636 29.3984C47.3604 29.4387 47.2502 29.458 47.1394 29.4553C47.0287 29.4526 46.9195 29.428 46.8184 29.3827C46.7172 29.3375 46.6261 29.2727 46.5502 29.1919C46.4743 29.1112 46.4153 29.0162 46.3764 28.9124C44.6964 24.518 40.8708 21.7004 36.2928 21.7004C32.2476 21.7004 28.4688 24.3188 26.7084 27.8852L28.4736 27.8732C28.5847 27.873 28.6946 27.8948 28.7973 27.9372C28.8999 27.9795 28.9932 28.0417 29.0718 28.1202C29.1503 28.1987 29.2127 28.2919 29.2552 28.3944C29.2977 28.497 29.3196 28.607 29.3196 28.718C29.3225 28.9422 29.2363 29.1583 29.0799 29.319C28.9235 29.4796 28.7098 29.5716 28.4856 29.5748L24.846 29.6C24.7345 29.6002 24.624 29.5782 24.521 29.5355C24.4179 29.4927 24.3244 29.43 24.2457 29.3509C24.1671 29.2718 24.1049 29.1779 24.0627 29.0746C24.0205 28.9713 23.9992 28.8607 24 28.7492V24.9044C24 24.434 24.3756 24.0536 24.84 24.0536C25.3032 24.0536 25.68 24.434 25.68 24.9044V26.2544C27.8652 22.5872 31.9212 20 36.2916 20" fill="white"/>
</g>
<defs>
<filter id="filter0_d_567_504" x="0.299999" y="0.299999" width="71.4" height="71.4" filterUnits="userSpaceOnUse" color-interpolation-filters="sRGB">
<feFlood flood-opacity="0" result="BackgroundImageFix"/>
<feColorMatrix in="SourceAlpha" type="matrix" values="0 0 0 0 0 0 0 0 0 0 0 0 0 0 0 0 0 0 127 0" result="hardAlpha"/>
<feOffset dy="4"/>
<feGaussianBlur stdDeviation="11.85"/>
<feComposite in2="hardAlpha" operator="out"/>
<feColorMatrix type="matrix" values="0 0 0 0 0 0 0 0 0 0 0 0 0 0 0 0 0 0 0.23 0"/>
<feBlend mode="normal" in2="BackgroundImageFix" result="effect1_dropShadow_567_504"/>
<feBlend mode="normal" in="SourceGraphic" in2="effect1_dropShadow_567_504" result="shape"/>
</filter>
<clipPath id="clip0_567_504">
<rect width="24" height="24" fill="white" transform="translate(24 20)"/>
</clipPath>
</defs>
</svg>
