<svg width="84" height="13" viewBox="0 0 84 13" fill="none" xmlns="http://www.w3.org/2000/svg">
<g clip-path="url(#clip0_749_1274)">
<path d="M13.2681 4.94885C13.1854 4.69288 12.9583 4.51109 12.6897 4.48688L9.04121 4.15559L7.5985 0.778766C7.49212 0.531289 7.24985 0.371094 6.98067 0.371094C6.71149 0.371094 6.46922 0.531289 6.36284 0.779345L4.92012 4.15559L1.27104 4.48688C1.00292 4.51166 0.776467 4.69288 0.693235 4.94885C0.610003 5.20481 0.68687 5.48557 0.889693 5.66254L3.64753 8.08119L2.83431 11.6634C2.7748 11.9268 2.87704 12.1991 3.09558 12.3571C3.21305 12.4419 3.35048 12.4851 3.48908 12.4851C3.60857 12.4851 3.7271 12.4529 3.83348 12.3893L6.98067 10.5083L10.1267 12.3893C10.3569 12.5278 10.6471 12.5151 10.8652 12.3571C11.0838 12.1986 11.186 11.9263 11.1264 11.6634L10.3132 8.08119L13.0711 5.66302C13.2739 5.48557 13.3513 5.2053 13.2681 4.94885Z" fill="#FFB543"/>
</g>
<g clip-path="url(#clip1_749_1274)">
<path d="M30.8247 4.94885C30.742 4.69288 30.515 4.51109 30.2464 4.48688L26.5979 4.15559L25.1551 0.778766C25.0488 0.531289 24.8065 0.371094 24.5373 0.371094C24.2681 0.371094 24.0259 0.531289 23.9195 0.779345L22.4768 4.15559L18.8277 4.48688C18.5596 4.51166 18.3331 4.69288 18.2499 4.94885C18.1666 5.20481 18.2435 5.48557 18.4463 5.66254L21.2042 8.08119L20.391 11.6634C20.3314 11.9268 20.4337 12.1991 20.6522 12.3571C20.7697 12.4419 20.9071 12.4851 21.0457 12.4851C21.1652 12.4851 21.2837 12.4529 21.3901 12.3893L24.5373 10.5083L27.6833 12.3893C27.9136 12.5278 28.2038 12.5151 28.4218 12.3571C28.6405 12.1986 28.7426 11.9263 28.6831 11.6634L27.8699 8.08119L30.6277 5.66302C30.8305 5.48557 30.908 5.2053 30.8247 4.94885Z" fill="#FFB543"/>
</g>
<g clip-path="url(#clip2_749_1274)">
<path d="M48.3814 4.94885C48.2986 4.69288 48.0716 4.51109 47.803 4.48688L44.1545 4.15559L42.7118 0.778766C42.6054 0.531289 42.3631 0.371094 42.094 0.371094C41.8248 0.371094 41.5825 0.531289 41.4761 0.779345L40.0334 4.15559L36.3843 4.48688C36.1162 4.51166 35.8897 4.69288 35.8065 4.94885C35.7233 5.20481 35.8002 5.48557 36.003 5.66254L38.7608 8.08119L37.9476 11.6634C37.8881 11.9268 37.9903 12.1991 38.2089 12.3571C38.3263 12.4419 38.4638 12.4851 38.6024 12.4851C38.7219 12.4851 38.8404 12.4529 38.9468 12.3893L42.094 10.5083L45.24 12.3893C45.4702 12.5278 45.7604 12.5151 45.9785 12.3571C46.1971 12.1986 46.2992 11.9263 46.2397 11.6634L45.4265 8.08119L48.1843 5.66302C48.3872 5.48557 48.4646 5.2053 48.3814 4.94885Z" fill="#FFB543"/>
</g>
<g clip-path="url(#clip3_749_1274)">
<path d="M65.938 4.94885C65.8553 4.69288 65.6282 4.51109 65.3596 4.48688L61.7111 4.15559L60.2684 0.778766C60.162 0.531289 59.9198 0.371094 59.6506 0.371094C59.3814 0.371094 59.1391 0.531289 59.0328 0.779345L57.59 4.15559L53.941 4.48688C53.6728 4.51166 53.4464 4.69288 53.3632 4.94885C53.2799 5.20481 53.3568 5.48557 53.5596 5.66254L56.3175 8.08119L55.5042 11.6634C55.4447 11.9268 55.547 12.1991 55.7655 12.3571C55.883 12.4419 56.0204 12.4851 56.159 12.4851C56.2785 12.4851 56.397 12.4529 56.5034 12.3893L59.6506 10.5083L62.7966 12.3893C63.0268 12.5278 63.317 12.5151 63.5351 12.3571C63.7537 12.1986 63.8559 11.9263 63.7964 11.6634L62.9831 8.08119L65.741 5.66302C65.9438 5.48557 66.0213 5.2053 65.938 4.94885Z" fill="#FFB543"/>
</g>
<g clip-path="url(#clip4_749_1274)">
<path d="M83.4947 4.94885C83.4119 4.69288 83.1849 4.51109 82.9163 4.48688L79.2678 4.15559L77.8251 0.778766C77.7187 0.531289 77.4764 0.371094 77.2072 0.371094C76.9381 0.371094 76.6958 0.531289 76.5894 0.779345L75.1467 4.15559L71.4976 4.48688C71.2295 4.51166 71.003 4.69288 70.9198 4.94885C70.8366 5.20481 70.9134 5.48557 71.1163 5.66254L73.8741 8.08119L73.0609 11.6634C73.0014 11.9268 73.1036 12.1991 73.3221 12.3571C73.4396 12.4419 73.577 12.4851 73.7156 12.4851C73.8351 12.4851 73.9537 12.4529 74.06 12.3893L77.2072 10.5083L80.3533 12.3893C80.5835 12.5278 80.8737 12.5151 81.0917 12.3571C81.3104 12.1986 81.4125 11.9263 81.353 11.6634L80.5398 8.08119L83.2976 5.66302C83.5005 5.48557 83.5779 5.2053 83.4947 4.94885Z" fill="#FFB543"/>
</g>
<defs>
<clipPath id="clip0_749_1274">
<rect width="12.6409" height="12.6409" fill="white" transform="translate(0.660156 0.105469)"/>
</clipPath>
<clipPath id="clip1_749_1274">
<rect width="12.6409" height="12.6409" fill="white" transform="translate(18.2168 0.105469)"/>
</clipPath>
<clipPath id="clip2_749_1274">
<rect width="12.6409" height="12.6409" fill="white" transform="translate(35.7734 0.105469)"/>
</clipPath>
<clipPath id="clip3_749_1274">
<rect width="12.6409" height="12.6409" fill="white" transform="translate(53.3301 0.105469)"/>
</clipPath>
<clipPath id="clip4_749_1274">
<rect width="12.6409" height="12.6409" fill="white" transform="translate(70.8867 0.105469)"/>
</clipPath>
</defs>
</svg>
